<svg width="32" height="32" viewBox="0 0 32 32" fill="none" xmlns="http://www.w3.org/2000/svg">
  <!-- DeepSeek AI Logo - Based on the actual design aesthetic -->
  <defs>
    <linearGradient id="deepseekGradient" x1="0%" y1="0%" x2="100%" y2="100%">
      <stop offset="0%" style="stop-color:#4A90E2;stop-opacity:1" />
      <stop offset="50%" style="stop-color:#5B7CE8;stop-opacity:1" />
      <stop offset="100%" style="stop-color:#8A6DE8;stop-opacity:1" />
    </linearGradient>
  </defs>
  
  <!-- Main whale-like shape inspired by DeepSeek design -->
  <path d="M6 14C6 9.58172 9.58172 6 14 6H20C24.4183 6 28 9.58172 28 14V18C28 22.4183 24.4183 26 20 26H16C13.7909 26 12 24.2091 12 22V20" 
        fill="url(#deepseekGradient)" stroke="currentColor" stroke-width="0.5" opacity="0.9"/>
  
  <!-- Inner curved element -->
  <path d="M10 16C10 12.6863 12.6863 10 16 10H18C20.2091 10 22 11.7909 22 14V16C22 18.2091 20.2091 20 18 20H14C11.7909 20 10 18.2091 10 16Z" 
        fill="url(#deepseekGradient)" opacity="0.6"/>
  
  <!-- Tail fin element -->
  <path d="M24 12L28 8M28 8L30 12M28 8V14" stroke="url(#deepseekGradient)" stroke-width="2" stroke-linecap="round" stroke-linejoin="round" opacity="0.8"/>
  
  <!-- Eye element -->
  <circle cx="18" cy="14" r="1.5" fill="white" opacity="0.9"/>
  <circle cx="18" cy="14" r="0.8" fill="url(#deepseekGradient)"/>
  
  <!-- Subtle water/wave elements -->
  <path d="M4 18C6 16 8 18 10 16" stroke="url(#deepseekGradient)" stroke-width="1.5" stroke-linecap="round" opacity="0.4"/>
  <path d="M4 22C6 20 8 22 10 20" stroke="url(#deepseekGradient)" stroke-width="1" stroke-linecap="round" opacity="0.3"/>
</svg>