<svg width="24" height="24" viewBox="0 0 24 24" fill="none" xmlns="http://www.w3.org/2000/svg">
  <!-- DeepSeek AI Assistant Icon -->
  
  <!-- Outer ring representing "deep" exploration -->
  <circle cx="12" cy="12" r="10" stroke="currentColor" stroke-width="1.5" fill="none" opacity="0.6"/>
  
  <!-- Middle ring -->
  <circle cx="12" cy="12" r="7" stroke="currentColor" stroke-width="1" fill="none" opacity="0.4"/>
  
  <!-- Central core with "DS" monogram -->
  <circle cx="12" cy="12" r="4.5" fill="currentColor" opacity="0.1"/>
  
  <!-- Stylized "DS" letters -->
  <!-- D shape -->
  <path d="M9.5 9.5H11C12.38 9.5 13.5 10.62 13.5 12C13.5 13.38 12.38 14.5 11 14.5H9.5V9.5Z" fill="currentColor" stroke="currentColor" stroke-width="0.5" opacity="0.9"/>
  
  <!-- S shape -->
  <path d="M14.5 10.5C14.5 10.22 14.72 10 15 10H15.5C15.78 10 16 10.22 16 10.5C16 10.78 15.78 11 15.5 11H15C14.72 11 14.5 11.22 14.5 11.5C14.5 11.78 14.72 12 15 12H15.5C15.78 12 16 12.22 16 12.5C16 12.78 15.78 13 15.5 13H15C14.72 13 14.5 13.22 14.5 13.5" stroke="currentColor" stroke-width="0.8" stroke-linecap="round" fill="none" opacity="0.9"/>
  
  <!-- Seeking/search rays -->
  <path d="M17.5 6.5L19 5" stroke="currentColor" stroke-width="1" stroke-linecap="round" opacity="0.7"/>
  <path d="M19 17.5L17.5 19" stroke="currentColor" stroke-width="1" stroke-linecap="round" opacity="0.7"/>
  <path d="M6.5 6.5L5 5" stroke="currentColor" stroke-width="1" stroke-linecap="round" opacity="0.7"/>
  <path d="M5 17.5L6.5 19" stroke="currentColor" stroke-width="1" stroke-linecap="round" opacity="0.7"/>
</svg>
